<svg width="448" height="490" viewBox="0 0 448 490" fill="none" xmlns="http://www.w3.org/2000/svg">
<path d="M35.5001 3.5C35.1668 33.8333 47.2001 94.5 98.0001 94.5C148.8 94.5 133.833 94.5 120 94.5C123.5 78.1667 112 37.1 38 3.5" stroke="black" stroke-width="6"/>
<path d="M157.5 317.5L340.5 230.5" stroke="black" stroke-width="7" stroke-linecap="round"/>
<path d="M67.5002 374.5C67.5002 374.5 135 417 162.5 427" stroke="black" stroke-width="7" stroke-linecap="round"/>
<path d="M341.5 230.999C341.5 230.999 370.5 339.5 403.5 374" stroke="black" stroke-width="7" stroke-linecap="round"/>
<path d="M109.5 276.5C86.0001 303.999 40.5004 381.501 67 375" stroke="black" stroke-width="7" stroke-linecap="round"/>
<path d="M111 277C111 277 114.5 344.5 153 371.5" stroke="black" stroke-width="7" stroke-linecap="round"/>
<path d="M245 212L241 279.5" stroke="black" stroke-width="7" stroke-linecap="round"/>
<path d="M195 246L161 313" stroke="black" stroke-width="7" stroke-linecap="round"/>
<path d="M324 282L305 451" stroke="black" stroke-width="7" stroke-linecap="round"/>
<path d="M159 316C129 370.001 184 367.999 184 367.999" stroke="black" stroke-width="7" stroke-linecap="round"/>
<path d="M225 350L164 428" stroke="black" stroke-width="7" stroke-linecap="round"/>
<path d="M324 280L186 368" stroke="black" stroke-width="7" stroke-linecap="round"/>
<path d="M185.89 157.806V158.148" stroke="black" stroke-width="7" stroke-linecap="round"/>
<path d="M186.478 156.5C192.478 136.833 216.378 103.7 263.978 128.5" stroke="black" stroke-width="7"/>
<path d="M260.999 127.444C280.5 138 278.999 181.499 268.999 193.5" stroke="black" stroke-width="7"/>
<path d="M269.477 192C267.024 199.712 249.978 215 225.805 208.798" stroke="black" stroke-width="7"/>
<path d="M196.977 166.5C196.144 161.667 197.677 151.2 210.477 148" stroke="black" stroke-width="7"/>
<path d="M223.478 137.5C223.478 132.333 227.078 122.5 241.478 124.5" stroke="black" stroke-width="7"/>
<path d="M207.978 183C210.811 167.167 224.878 135.1 258.478 133.5" stroke="black" stroke-width="7"/>
<path d="M207.478 184.5C221.478 207 288.378 207.1 257.978 133.5" stroke="black" stroke-width="7"/>
<path d="M215.478 116L225.478 129.803" stroke="black" stroke-width="7" stroke-linecap="round"/>
<path d="M225.478 111L229.478 126.138" stroke="black" stroke-width="7" stroke-linecap="round"/>
<path d="M236.478 108V124.283" stroke="black" stroke-width="7" stroke-linecap="round"/>
<path d="M186.478 157L196.478 161.026" stroke="black" stroke-width="7" stroke-linecap="round"/>
<path d="M186.478 145L199.478 154.362" stroke="black" stroke-width="7" stroke-linecap="round"/>
<path d="M194.478 139L203.478 150.467" stroke="black" stroke-width="7" stroke-linecap="round"/>
<path d="M163.479 184.997C153.479 200.164 123.001 169.997 79.0014 167.997C35.0014 165.997 22.5006 212.499 22.5006 212.499C6.5 272 28.8009 211.297 84.0009 212.497C153.001 213.997 150.479 207.997 179.979 196.497" stroke="black" stroke-width="7"/>
<path d="M112.771 279.426C100.801 270.472 74.4971 253.708 65.0477 258.285C53.2359 264.006 -28.8062 357.42 20.798 371.3C70.4023 385.181 52.3784 351.072 51.3755 354.944" stroke="black" stroke-width="7"/>
<path d="M305.043 441.602C307.466 449.146 314.72 464.299 324.35 464.564C336.387 464.895 433.972 440.329 433.121 392.703C432.441 354.602 393.85 381.737 374.64 400.067" stroke="black" stroke-width="7"/>
<path d="M153 373L164 363" stroke="black" stroke-width="5"/>
<path d="M305.5 448.5L377.5 398M103.5 97C189.833 213.167 369.8 450.5 399 470.5C356.2 373.7 194.833 181.167 119.5 97H103.5Z" stroke="black" stroke-width="6"/>
<path d="M236.5 276.5L162.5 220L182.5 204.5" stroke="black" stroke-width="6"/>
</svg>
