<svg width="1410" height="1087" viewBox="0 0 1410 1087" fill="none" xmlns="http://www.w3.org/2000/svg">
<g clip-path="url(#clip0_1134_3285)">
<path fill-rule="evenodd" clip-rule="evenodd" d="M927.138 216.91C922.605 218.672 917.524 218.755 912.878 217.142C908.233 215.529 904.354 212.336 901.995 208.18C899.635 204.025 898.962 199.204 900.107 194.652C901.252 190.1 904.132 186.141 908.19 183.543C912.248 180.945 917.194 179.892 922.07 180.59C926.946 181.287 931.403 183.685 934.579 187.318C937.755 190.951 939.422 195.56 939.258 200.252C939.094 204.945 937.11 209.386 933.691 212.714L937.451 218.341C937.756 218.798 937.958 219.31 938.041 219.844C938.124 220.378 938.087 220.921 937.933 221.436C937.78 221.952 937.512 222.429 937.148 222.835C936.784 223.242 936.333 223.568 935.824 223.792L935.779 223.809C934.848 224.221 933.781 224.267 932.804 223.94C931.826 223.613 931.015 222.937 930.541 222.056C930.431 221.854 930.312 221.657 930.183 221.466L927.138 216.91ZM912.96 189.69C915.534 188.139 918.65 187.604 921.66 188.197C924.67 188.79 927.342 190.464 929.121 192.873C930.899 195.281 931.647 198.237 931.209 201.127C930.77 204.016 929.18 206.617 926.767 208.387C926.348 208.567 925.965 208.816 925.636 209.123C922.962 210.69 919.73 211.168 916.651 210.454C913.571 209.74 910.897 207.891 909.216 205.314C907.535 202.737 906.985 199.643 907.687 196.713C908.389 193.783 910.286 191.257 912.96 189.69ZM953.846 225.385C949.334 224.541 944.687 224.813 940.35 226.173C936.013 227.533 932.129 229.937 929.07 233.154C927.658 234.64 926.414 236.302 925.384 238.122C924.773 239.201 923.878 240.107 922.786 240.751C921.693 241.395 920.44 241.755 919.149 241.797L913.29 241.985C912.132 237.403 909.24 233.37 905.175 230.666C901.109 227.963 896.159 226.783 891.285 227.354C886.411 227.925 881.96 230.207 878.795 233.758C875.629 237.309 873.975 241.876 874.153 246.572C874.331 251.269 876.328 255.762 879.757 259.179C883.186 262.596 887.803 264.695 892.713 265.068C897.622 265.441 902.475 264.062 906.33 261.198C910.185 258.335 912.767 254.19 913.577 249.568L997.384 246.866C998.168 246.841 998.923 246.594 999.554 246.157C1000.18 245.719 1000.66 245.111 1000.93 244.409C1001.19 243.707 1001.23 242.943 1001.04 242.213C1000.85 241.483 1000.44 240.82 999.857 240.308L996.598 237.44C992.741 234.044 987.979 231.737 982.854 230.782L953.846 225.385ZM893.418 234.805C891.849 234.846 890.308 235.183 888.885 235.796C887.462 236.41 886.184 237.288 885.125 238.38C884.066 239.472 883.246 240.757 882.714 242.16C882.182 243.563 881.948 245.057 882.024 246.556C882.1 248.055 882.486 249.529 883.16 250.893C883.833 252.258 884.78 253.485 885.947 254.506C887.114 255.526 888.477 256.319 889.958 256.839C891.439 257.359 893.009 257.595 894.577 257.534C897.717 257.413 900.661 256.11 902.766 253.91C904.871 251.709 905.967 248.79 905.814 245.788C905.661 242.787 904.271 239.948 901.949 237.89C899.627 235.833 896.56 234.724 893.418 234.805ZM936.663 242.15C937.599 242.622 938.689 242.724 939.691 242.431C940.694 242.138 941.527 241.475 942.009 240.588C942.49 239.701 942.58 238.662 942.258 237.701C941.937 236.739 941.23 235.933 940.293 235.46C939.357 234.987 938.268 234.886 937.266 235.179C936.263 235.471 935.429 236.134 934.948 237.021C934.467 237.908 934.377 238.947 934.698 239.909C935.02 240.871 935.727 241.677 936.663 242.15Z" fill="#E3E3D9"/>
<path d="M957.569 251.943C958.265 251.92 958.957 252.073 959.577 252.386C960.197 252.699 960.722 253.161 961.099 253.726L979.071 280.618C979.496 281.255 979.715 281.995 979.702 282.744C979.688 283.494 979.442 284.219 978.994 284.829C978.546 285.439 977.917 285.905 977.186 286.169C976.456 286.433 975.656 286.484 974.889 286.313L970.593 285.365C965.504 284.24 960.826 281.777 957.094 278.256L936.677 258.998C936.122 258.476 935.737 257.812 935.568 257.089C935.4 256.365 935.456 255.614 935.73 254.927C936.003 254.24 936.482 253.647 937.108 253.221C937.733 252.796 938.478 252.556 939.251 252.531L957.569 251.943Z" fill="#E3E3D9"/>
</g>
<g clip-path="url(#clip1_1134_3285)">
<path fill-rule="evenodd" clip-rule="evenodd" d="M967.074 820.376C967.934 824.398 967.203 828.559 965.024 832.053C962.845 835.547 959.373 838.125 955.28 839.286C951.188 840.447 946.767 840.11 942.875 838.339C938.982 836.568 935.895 833.49 934.213 829.701C932.53 825.912 932.372 821.683 933.768 817.833C935.164 813.983 938.016 810.786 941.77 808.863C945.524 806.939 949.913 806.426 954.086 807.423C958.259 808.42 961.92 810.855 964.357 814.257L969.988 812.224C970.445 812.058 970.936 811.988 971.426 812.019C971.917 812.049 972.397 812.179 972.834 812.399C973.272 812.619 973.656 812.926 973.962 813.297C974.268 813.669 974.488 814.097 974.609 814.554L974.617 814.594C974.837 815.428 974.711 816.308 974.263 817.045C973.815 817.783 973.082 818.32 972.218 818.545C972.02 818.597 971.825 818.658 971.634 818.728L967.074 820.376ZM940.469 826.939C939.489 824.554 939.504 821.913 940.511 819.566C941.518 817.219 943.44 815.346 945.877 814.338C948.313 813.33 951.078 813.263 953.594 814.152C956.111 815.041 958.186 816.817 959.388 819.111C959.483 819.486 959.645 819.844 959.867 820.169C960.846 822.639 960.763 825.364 959.636 827.746C958.509 830.127 956.431 831.969 953.859 832.867C951.286 833.765 948.43 833.645 945.919 832.533C943.408 831.421 941.448 829.409 940.469 826.939ZM978.887 800.141C977.418 803.668 976.926 807.509 977.456 811.298C977.986 815.087 979.522 818.698 981.917 821.786C983.023 823.211 984.314 824.531 985.78 825.707C986.649 826.403 987.317 827.3 987.721 828.31C988.124 829.32 988.248 830.408 988.081 831.47L987.322 836.285C983.038 836.387 978.97 838.006 975.907 840.826C972.844 843.646 971.004 847.468 970.743 851.55C970.483 855.632 971.82 859.683 974.497 862.919C977.174 866.155 980.998 868.344 985.23 869.062C989.461 869.781 993.798 868.978 997.399 866.808C1001 864.638 1003.61 861.257 1004.72 857.319C1005.83 853.382 1005.37 849.169 1003.41 845.497C1001.46 841.825 998.161 838.956 994.153 837.445L1005.01 768.566C1005.11 767.922 1005.01 767.26 1004.71 766.665C1004.42 766.07 1003.95 765.568 1003.37 765.223C1002.78 764.877 1002.1 764.705 1001.42 764.726C1000.74 764.747 1000.08 764.962 999.529 765.342L996.446 767.474C992.796 769.997 989.977 773.458 988.311 777.464L978.887 800.141ZM977.749 851.18C977.537 852.467 977.595 853.786 977.918 855.061C978.242 856.335 978.826 857.539 979.635 858.604C980.445 859.669 981.465 860.573 982.637 861.266C983.808 861.958 985.108 862.424 986.462 862.637C987.815 862.85 989.195 862.806 990.523 862.508C991.85 862.209 993.099 861.662 994.197 860.898C995.295 860.133 996.22 859.167 996.92 858.054C997.62 856.941 998.08 855.703 998.274 854.413C998.663 851.828 997.963 849.187 996.327 847.065C994.691 844.942 992.251 843.512 989.541 843.085C986.831 842.658 984.071 843.269 981.861 844.786C979.652 846.302 978.174 848.601 977.749 851.18ZM991.17 817.244C991.741 816.567 992.005 815.697 991.901 814.825C991.798 813.953 991.337 813.151 990.619 812.595C989.901 812.039 988.986 811.775 988.075 811.861C987.163 811.946 986.33 812.375 985.758 813.052C985.187 813.729 984.924 814.599 985.027 815.471C985.13 816.343 985.591 817.145 986.309 817.701C987.027 818.257 987.942 818.521 988.854 818.435C989.765 818.349 990.598 817.921 991.17 817.244Z" fill="#E3E3D9"/>
<path d="M1003.25 801.987C1003.34 801.415 1003.58 800.878 1003.96 800.43C1004.34 799.982 1004.83 799.638 1005.4 799.434L1032.31 789.714C1032.95 789.485 1033.65 789.441 1034.31 789.59C1034.98 789.739 1035.59 790.074 1036.07 790.551C1036.54 791.028 1036.86 791.627 1036.98 792.272C1037.1 792.917 1037.02 793.579 1036.75 794.174L1035.22 797.504C1033.41 801.45 1030.46 804.814 1026.72 807.212L1006.25 820.331C1005.7 820.688 1005.04 820.88 1004.37 820.884C1003.69 820.889 1003.03 820.705 1002.46 820.355C1001.89 820.006 1001.43 819.506 1001.15 818.917C1000.87 818.329 1000.77 817.677 1000.87 817.042L1003.25 801.987Z" fill="#E3E3D9"/>
</g>
<path d="M11.1941 888.589C-11.3474 703.054 147.94 526.525 299.467 539.628C414.775 549.598 458.106 576.64 513.965 638.174C569.823 699.708 752.365 933.502 927.597 853.477C1167.75 743.803 958.513 502.543 855.062 415.632C751.611 328.72 819.47 207.151 911.464 227.086C1003.46 247.02 927.164 224.715 1137.84 312.478C1348.52 400.241 1440.53 225.131 1394.04 197.602" stroke="#E3E3D9" stroke-width="10.4483" stroke-linecap="square" stroke-dasharray="27.86 27.86"/>
<g clip-path="url(#clip2_1134_3285)">
<path fill-rule="evenodd" clip-rule="evenodd" d="M71.4396 629.615C71.1087 633.715 69.2146 637.492 66.1246 640.214C63.0345 642.935 58.9686 644.408 54.7151 644.346C50.4616 644.284 46.3234 642.692 43.1029 639.879C39.8823 637.065 37.8087 633.231 37.2842 629.119C36.7596 625.006 37.8214 620.909 40.2638 617.622C42.7061 614.334 46.355 612.091 50.503 611.325C54.651 610.56 59.0027 611.328 62.7145 613.48C66.4263 615.633 69.2337 619.016 70.5925 622.974L76.5699 622.642C77.0554 622.615 77.5452 622.689 78.0067 622.859C78.4682 623.029 78.8908 623.291 79.2463 623.627C79.6019 623.964 79.8823 624.367 80.0688 624.811C80.2552 625.255 80.3436 625.728 80.3279 626.2L80.3241 626.241C80.2959 627.104 79.922 627.91 79.2815 628.488C78.6409 629.066 77.7841 629.371 76.8923 629.338C76.6877 629.331 76.4833 629.334 76.2798 629.346L71.4396 629.615ZM44.0699 628.268C43.8153 625.702 44.5875 623.176 46.2257 621.217C47.864 619.258 50.2423 618.016 52.8659 617.749C55.4896 617.482 58.1566 618.212 60.3122 619.785C62.4678 621.359 63.9461 623.656 64.4396 626.198C64.4227 626.585 64.4753 626.975 64.5951 627.349C64.8239 629.996 63.9621 632.583 62.1993 634.541C60.4365 636.499 57.9171 637.667 55.1953 637.789C52.4734 637.911 49.7722 636.976 47.6858 635.191C45.5994 633.405 44.2987 630.915 44.0699 628.268ZM88.5624 613.622C86.1431 616.579 84.5688 620.117 83.9896 623.899C83.4104 627.681 83.8456 631.58 85.2538 635.226C85.9043 636.908 86.7613 638.543 87.8287 640.09C88.4612 641.007 88.8443 642.058 88.9409 643.141C89.0374 644.224 88.8441 645.302 88.3797 646.271L86.2701 650.666C82.1371 649.535 77.7761 649.918 74.0326 651.74C70.2891 653.563 67.4297 656.696 66.0087 660.531C64.5878 664.367 64.7065 668.632 66.342 672.499C67.9774 676.367 71.013 679.562 74.8603 681.464C78.7076 683.367 83.0924 683.842 87.1648 682.797C91.2371 681.752 94.7069 679.261 96.9014 675.808C99.0959 672.355 99.8587 668.186 99.0421 664.108C98.2255 660.03 95.8875 656.335 92.4815 653.738L122.643 590.87C122.926 590.281 123.018 589.618 122.91 588.965C122.801 588.311 122.497 587.696 122.034 587.197C121.571 586.698 120.972 586.338 120.311 586.162C119.65 585.987 118.958 586.003 118.322 586.21L114.756 587.367C110.536 588.736 106.843 591.243 104.097 594.603L88.5624 613.622ZM72.8263 662.187C72.2536 663.36 71.9301 664.64 71.8746 665.953C71.819 667.267 72.0324 668.588 72.5025 669.84C72.9726 671.093 73.6901 672.252 74.6137 673.252C75.5374 674.251 76.6488 675.07 77.8841 675.663C79.1195 676.256 80.4542 676.609 81.8117 676.704C83.1691 676.799 84.5223 676.634 85.7934 676.216C87.0645 675.799 88.2284 675.139 89.218 674.273C90.2077 673.408 91.0036 672.355 91.5599 671.174C92.6739 668.81 92.7613 666.079 91.8031 663.576C90.8449 661.074 88.9188 659.003 86.4453 657.817C83.9718 656.63 81.1515 656.424 78.6001 657.242C76.0486 658.061 73.973 659.839 72.8263 662.187ZM95.4205 633.53C96.1622 633.045 96.6639 632.287 96.8151 631.423C96.9664 630.558 96.7547 629.657 96.2268 628.919C95.6989 628.18 94.8979 627.664 94.0001 627.485C93.1022 627.305 92.1811 627.477 91.4393 627.961C90.6975 628.446 90.1959 629.204 90.0447 630.068C89.8934 630.933 90.1051 631.834 90.633 632.572C91.1609 633.311 91.9619 633.827 92.8597 634.006C93.7576 634.186 94.6787 634.014 95.4205 633.53Z" fill="#E3E3D9"/>
<path d="M111.366 622.379C111.616 621.857 112.007 621.414 112.498 621.093C112.989 620.772 113.563 620.586 114.163 620.552L142.733 618.964C143.409 618.927 144.089 619.085 144.686 619.42C145.284 619.755 145.773 620.25 146.09 620.843C146.408 621.437 146.541 622.102 146.471 622.754C146.402 623.407 146.134 624.017 145.701 624.508L143.28 627.26C140.412 630.52 136.625 632.897 132.353 634.12L108.981 640.814C108.347 640.997 107.664 640.993 107.017 640.804C106.37 640.614 105.787 640.248 105.34 639.749C104.893 639.25 104.601 638.641 104.5 637.996C104.399 637.351 104.493 636.699 104.771 636.12L111.366 622.379Z" fill="#E3E3D9"/>
</g>
<defs>
<clipPath id="clip0_1134_3285">
<rect width="126.567" height="121.777" fill="white" transform="matrix(0.892579 0.450891 -0.476983 0.878913 911.036 156.754)"/>
</clipPath>
<clipPath id="clip1_1134_3285">
<rect width="106.903" height="109.528" fill="white" transform="matrix(0.645076 -0.764119 0.790551 0.612397 910.69 822.455)"/>
</clipPath>
<clipPath id="clip2_1134_3285">
<rect width="106.903" height="109.528" fill="white" transform="matrix(0.837216 -0.546873 0.58157 0.813496 16.8301 615.428)"/>
</clipPath>
</defs>
</svg>
