<svg width="1410" height="1088" viewBox="0 0 1410 1088" fill="none" xmlns="http://www.w3.org/2000/svg">
<g clip-path="url(#clip0_1134_3285)">
<path fill-rule="evenodd" clip-rule="evenodd" d="M927.138 217.676C922.605 219.438 917.524 219.521 912.878 217.908C908.233 216.295 904.354 213.101 901.995 208.946C899.635 204.79 898.962 199.969 900.107 195.417C901.252 190.865 904.132 186.907 908.19 184.309C912.248 181.71 917.194 180.658 922.07 181.356C926.946 182.053 931.403 184.451 934.579 188.083C937.755 191.716 939.422 196.326 939.258 201.018C939.094 205.71 937.11 210.151 933.691 213.48L937.451 219.107C937.756 219.564 937.958 220.076 938.041 220.61C938.124 221.143 938.087 221.686 937.933 222.202C937.78 222.718 937.512 223.195 937.148 223.601C936.784 224.007 936.333 224.333 935.824 224.558L935.779 224.575C934.848 224.986 933.781 225.033 932.804 224.706C931.826 224.378 931.015 223.703 930.541 222.821C930.431 222.619 930.312 222.423 930.183 222.231L927.138 217.676ZM912.96 190.455C915.534 188.904 918.65 188.37 921.66 188.963C924.67 189.555 927.342 191.23 929.121 193.638C930.899 196.047 931.647 199.003 931.209 201.892C930.77 204.782 929.18 207.382 926.767 209.153C926.348 209.333 925.965 209.582 925.636 209.888C922.962 211.455 919.73 211.934 916.651 211.22C913.571 210.506 910.897 208.657 909.216 206.08C907.535 203.503 906.985 200.409 907.687 197.479C908.389 194.549 910.286 192.022 912.96 190.455ZM953.846 226.15C949.334 225.307 944.687 225.579 940.35 226.939C936.013 228.299 932.129 230.702 929.07 233.92C927.658 235.406 926.414 237.067 925.384 238.888C924.773 239.967 923.878 240.873 922.786 241.517C921.693 242.161 920.44 242.521 919.149 242.563L913.29 242.751C912.132 238.169 909.24 234.135 905.175 231.432C901.109 228.729 896.159 227.548 891.285 228.119C886.412 228.691 881.96 230.973 878.795 234.524C875.629 238.075 873.975 242.641 874.153 247.338C874.331 252.035 876.328 256.527 879.757 259.945C883.186 263.362 887.803 265.461 892.713 265.834C897.622 266.207 902.475 264.828 906.33 261.964C910.185 259.1 912.767 254.956 913.577 250.334L997.384 247.632C998.168 247.607 998.923 247.36 999.554 246.922C1000.18 246.485 1000.66 245.877 1000.93 245.175C1001.19 244.473 1001.23 243.709 1001.04 242.979C1000.85 242.249 1000.44 241.586 999.857 241.074L996.598 238.206C992.741 234.81 987.979 232.502 982.854 231.547L953.846 226.15ZM893.418 235.571C891.849 235.611 890.308 235.948 888.885 236.562C887.462 237.175 886.184 238.053 885.125 239.146C884.066 240.238 883.246 241.523 882.714 242.926C882.182 244.329 881.948 245.823 882.024 247.322C882.1 248.821 882.486 250.295 883.16 251.659C883.833 253.023 884.78 254.251 885.947 255.271C887.114 256.292 888.477 257.085 889.958 257.604C891.439 258.124 893.009 258.361 894.577 258.3C897.717 258.179 900.661 256.876 902.766 254.675C904.871 252.475 905.967 249.555 905.814 246.554C905.661 243.553 904.271 240.714 901.949 238.656C899.627 236.598 896.56 235.489 893.418 235.571ZM936.663 242.915C937.599 243.388 938.689 243.489 939.691 243.197C940.694 242.904 941.527 242.241 942.009 241.354C942.49 240.467 942.58 239.428 942.258 238.466C941.937 237.505 941.23 236.699 940.293 236.226C939.357 235.753 938.268 235.651 937.266 235.944C936.263 236.237 935.429 236.9 934.948 237.787C934.467 238.674 934.377 239.713 934.698 240.674C935.02 241.636 935.727 242.442 936.663 242.915Z" fill="black" fill-opacity="0.2"/>
<path d="M957.569 252.708C958.265 252.686 958.957 252.839 959.577 253.152C960.197 253.465 960.722 253.927 961.099 254.492L979.071 281.384C979.496 282.021 979.715 282.761 979.702 283.51C979.688 284.26 979.442 284.985 978.994 285.595C978.546 286.204 977.917 286.671 977.186 286.935C976.456 287.199 975.656 287.249 974.889 287.079L970.593 286.131C965.504 285.006 960.826 282.543 957.094 279.022L936.677 259.764C936.122 259.241 935.737 258.578 935.568 257.854C935.4 257.131 935.456 256.38 935.73 255.692C936.003 255.005 936.482 254.413 937.108 253.987C937.733 253.561 938.478 253.321 939.251 253.297L957.569 252.708Z" fill="black" fill-opacity="0.2"/>
</g>
<g clip-path="url(#clip1_1134_3285)">
<path fill-rule="evenodd" clip-rule="evenodd" d="M967.074 821.141C967.934 825.163 967.203 829.325 965.024 832.819C962.845 836.313 959.373 838.89 955.28 840.052C951.188 841.213 946.767 840.875 942.875 839.104C938.982 837.334 935.895 834.255 934.213 830.467C932.53 826.678 932.372 822.448 933.768 818.598C935.164 814.748 938.016 811.552 941.77 809.628C945.524 807.705 949.913 807.192 954.086 808.189C958.259 809.185 961.92 811.621 964.357 815.022L969.988 812.989C970.445 812.824 970.936 812.754 971.426 812.784C971.917 812.815 972.397 812.944 972.834 813.165C973.272 813.385 973.656 813.691 973.962 814.063C974.268 814.434 974.488 814.863 974.609 815.319L974.617 815.359C974.837 816.194 974.711 817.073 974.263 817.811C973.815 818.548 973.082 819.086 972.218 819.31C972.02 819.363 971.825 819.424 971.634 819.494L967.074 821.141ZM940.469 827.705C939.489 825.319 939.504 822.678 940.511 820.331C941.518 817.984 943.44 816.112 945.877 815.104C948.313 814.095 951.078 814.029 953.594 814.918C956.111 815.807 958.186 817.583 959.388 819.876C959.483 820.252 959.645 820.61 959.867 820.934C960.846 823.404 960.763 826.13 959.636 828.511C958.509 830.892 956.431 832.735 953.859 833.632C951.286 834.53 948.43 834.41 945.919 833.298C943.408 832.187 941.448 830.175 940.469 827.705ZM978.887 800.907C977.418 804.434 976.926 808.275 977.456 812.064C977.986 815.853 979.522 819.463 981.917 822.551C983.023 823.977 984.314 825.297 985.78 826.472C986.649 827.169 987.317 828.066 987.721 829.076C988.124 830.086 988.248 831.174 988.081 832.235L987.322 837.051C983.038 837.153 978.97 838.771 975.907 841.591C972.844 844.412 971.004 848.233 970.743 852.315C970.483 856.397 971.82 860.449 974.497 863.684C977.174 866.92 980.998 869.11 985.23 869.828C989.461 870.547 993.798 869.743 997.399 867.574C1001 865.404 1003.61 862.023 1004.72 858.085C1005.83 854.148 1005.37 849.934 1003.41 846.262C1001.46 842.591 998.161 839.721 994.153 838.211L1005.01 769.332C1005.11 768.687 1005.01 768.025 1004.71 767.43C1004.42 766.835 1003.95 766.333 1003.37 765.988C1002.78 765.643 1002.1 765.47 1001.42 765.492C1000.74 765.513 1000.08 765.727 999.529 766.108L996.446 768.24C992.796 770.762 989.977 774.224 988.311 778.23L978.887 800.907ZM977.749 851.945C977.537 853.233 977.595 854.552 977.918 855.826C978.242 857.1 978.826 858.305 979.635 859.37C980.445 860.434 981.465 861.339 982.637 862.031C983.808 862.723 985.108 863.19 986.462 863.403C987.815 863.616 989.195 863.572 990.523 863.274C991.85 862.975 993.099 862.428 994.197 861.663C995.295 860.899 996.22 859.932 996.92 858.819C997.62 857.706 998.08 856.469 998.274 855.178C998.663 852.594 997.963 849.952 996.327 847.83C994.691 845.708 992.251 844.277 989.541 843.85C986.831 843.423 984.071 844.035 981.861 845.552C979.652 847.068 978.174 849.366 977.749 851.945ZM991.17 818.01C991.741 817.333 992.005 816.462 991.901 815.591C991.798 814.719 991.337 813.917 990.619 813.361C989.901 812.805 988.986 812.541 988.075 812.626C987.163 812.712 986.33 813.14 985.758 813.817C985.187 814.494 984.924 815.365 985.027 816.236C985.13 817.108 985.591 817.91 986.309 818.466C987.027 819.022 987.942 819.286 988.854 819.201C989.765 819.115 990.598 818.687 991.17 818.01Z" fill="black" fill-opacity="0.2"/>
<path d="M1003.25 802.753C1003.34 802.181 1003.58 801.644 1003.96 801.195C1004.34 800.747 1004.83 800.404 1005.4 800.2L1032.31 790.48C1032.95 790.25 1033.65 790.207 1034.31 790.356C1034.98 790.505 1035.59 790.839 1036.07 791.317C1036.54 791.794 1036.86 792.393 1036.98 793.038C1037.1 793.683 1037.02 794.344 1036.75 794.939L1035.22 798.27C1033.41 802.216 1030.46 805.58 1026.72 807.977L1006.25 821.097C1005.7 821.453 1005.04 821.646 1004.37 821.65C1003.69 821.654 1003.03 821.47 1002.46 821.121C1001.89 820.771 1001.43 820.272 1001.15 819.683C1000.87 819.094 1000.77 818.442 1000.87 817.807L1003.25 802.753Z" fill="black" fill-opacity="0.2"/>
</g>
<path d="M11.1941 889.355C-11.3474 703.82 147.94 527.291 299.467 540.393C414.775 550.364 458.106 577.405 513.965 638.94C569.823 700.474 752.365 934.268 927.597 854.243C1167.75 744.569 958.513 503.308 855.062 416.397C751.611 329.486 819.47 207.916 911.464 227.851C1003.46 247.786 927.164 225.48 1137.84 313.243C1348.52 401.007 1440.53 225.897 1394.04 198.368" stroke="black" stroke-opacity="0.2" stroke-width="10.4483" stroke-linecap="square" stroke-dasharray="27.86 27.86"/>
<g clip-path="url(#clip2_1134_3285)">
<path fill-rule="evenodd" clip-rule="evenodd" d="M71.4396 630.381C71.1087 634.481 69.2146 638.258 66.1246 640.979C63.0345 643.701 58.9686 645.174 54.7151 645.112C50.4616 645.05 46.3234 643.458 43.1029 640.644C39.8823 637.831 37.8087 633.997 37.2842 629.884C36.7596 625.772 37.8214 621.675 40.2638 618.388C42.7061 615.1 46.355 612.856 50.503 612.091C54.651 611.326 59.0027 612.094 62.7145 614.246C66.4263 616.398 69.2337 619.782 70.5925 623.74L76.5699 623.408C77.0554 623.381 77.5452 623.455 78.0067 623.624C78.4682 623.794 78.8908 624.056 79.2463 624.393C79.6019 624.729 79.8823 625.133 80.0688 625.577C80.2552 626.02 80.3436 626.494 80.3279 626.966L80.3241 627.007C80.2959 627.87 79.922 628.675 79.2815 629.253C78.6409 629.831 77.7841 630.136 76.8923 630.103C76.6877 630.097 76.4833 630.099 76.2798 630.111L71.4396 630.381ZM44.0699 629.034C43.8153 626.467 44.5875 623.942 46.2257 621.983C47.864 620.023 50.2423 618.781 52.8659 618.515C55.4896 618.248 58.1566 618.977 60.3122 620.551C62.4678 622.125 63.9461 624.422 64.4396 626.964C64.4227 627.351 64.4753 627.74 64.5951 628.115C64.8239 630.762 63.9621 633.349 62.1993 635.307C60.4365 637.264 57.9171 638.433 55.1953 638.555C52.4734 638.676 49.7722 637.742 47.6858 635.956C45.5994 634.171 44.2987 631.681 44.0699 629.034ZM88.5624 614.387C86.143 617.344 84.5688 620.883 83.9896 624.664C83.4104 628.446 83.8456 632.346 85.2538 635.991C85.9043 637.674 86.7613 639.309 87.8287 640.856C88.4612 641.772 88.8443 642.823 88.9409 643.907C89.0374 644.99 88.8441 646.068 88.3797 647.037L86.2701 651.432C82.1371 650.3 77.7761 650.683 74.0326 652.506C70.2891 654.329 67.4297 657.461 66.0087 661.297C64.5878 665.132 64.7065 669.397 66.342 673.265C67.9774 677.133 71.013 680.328 74.8603 682.23C78.7076 684.133 83.0924 684.607 87.1648 683.562C91.2371 682.517 94.7069 680.027 96.9014 676.574C99.0959 673.121 99.8587 668.952 99.0421 664.874C98.2255 660.796 95.8875 657.1 92.4815 654.504L122.643 591.635C122.926 591.047 123.018 590.384 122.91 589.73C122.801 589.077 122.497 588.461 122.034 587.962C121.571 587.464 120.972 587.104 120.311 586.928C119.65 586.752 118.958 586.769 118.322 586.975L114.756 588.133C110.536 589.502 106.843 592.009 104.097 595.368L88.5624 614.387ZM72.8263 662.953C72.2536 664.126 71.9301 665.406 71.8746 666.719C71.819 668.033 72.0324 669.354 72.5025 670.606C72.9726 671.859 73.6901 673.018 74.6137 674.017C75.5374 675.016 76.6488 675.836 77.8841 676.429C79.1195 677.021 80.4542 677.375 81.8117 677.47C83.1691 677.565 84.5223 677.399 85.7934 676.982C87.0645 676.565 88.2284 675.904 89.218 675.039C90.2077 674.174 91.0036 673.12 91.5599 671.94C92.6739 669.575 92.7613 666.844 91.8031 664.342C90.8448 661.839 88.9188 659.769 86.4453 658.582C83.9718 657.396 81.1515 657.189 78.6001 658.008C76.0486 658.827 73.973 660.604 72.8263 662.953ZM95.4205 634.296C96.1622 633.811 96.6639 633.053 96.8151 632.188C96.9664 631.323 96.7547 630.423 96.2268 629.684C95.6989 628.946 94.8979 628.43 94.0001 628.25C93.1022 628.071 92.1811 628.242 91.4393 628.727C90.6975 629.211 90.1959 629.969 90.0447 630.834C89.8934 631.699 90.1051 632.6 90.633 633.338C91.1609 634.077 91.9619 634.592 92.8597 634.772C93.7576 634.951 94.6787 634.78 95.4205 634.296Z" fill="black" fill-opacity="0.2"/>
<path d="M111.366 623.145C111.616 622.623 112.007 622.179 112.498 621.859C112.989 621.538 113.563 621.351 114.163 621.318L142.733 619.73C143.409 619.692 144.089 619.851 144.686 620.186C145.284 620.52 145.773 621.016 146.09 621.609C146.408 622.203 146.541 622.868 146.471 623.52C146.402 624.172 146.134 624.783 145.701 625.274L143.28 628.026C140.412 631.286 136.625 633.663 132.353 634.886L108.981 641.58C108.347 641.762 107.664 641.759 107.017 641.569C106.37 641.38 105.787 641.014 105.34 640.515C104.893 640.016 104.601 639.407 104.5 638.762C104.399 638.117 104.493 637.465 104.771 636.885L111.366 623.145Z" fill="black" fill-opacity="0.2"/>
</g>
<defs>
<clipPath id="clip0_1134_3285">
<rect width="126.567" height="121.777" fill="white" transform="matrix(0.892579 0.450891 -0.476983 0.878913 911.036 157.52)"/>
</clipPath>
<clipPath id="clip1_1134_3285">
<rect width="106.903" height="109.528" fill="white" transform="matrix(0.645076 -0.764119 0.790551 0.612397 910.69 823.221)"/>
</clipPath>
<clipPath id="clip2_1134_3285">
<rect width="106.903" height="109.528" fill="white" transform="matrix(0.837216 -0.546873 0.58157 0.813496 16.8301 616.193)"/>
</clipPath>
</defs>
</svg>
