<svg width="588" height="496" viewBox="0 0 588 496" fill="none" xmlns="http://www.w3.org/2000/svg">
<path d="M349 334.39L518 198" stroke="black" stroke-width="9" stroke-linecap="round"/>
<path d="M76.0002 469.001C76.0002 469.001 518 281.001 518 309.001" stroke="black" stroke-width="9" stroke-linecap="round"/>
<path d="M518 197.999C518 197.999 559.5 165.499 518 308.999" stroke="black" stroke-width="9" stroke-linecap="round"/>
<path d="M99 368.001C32.3934 475.142 42.2742 479.228 74.9556 468.666" stroke="black" stroke-width="9" stroke-linecap="round"/>
<path d="M99 368C99 368 208 384.5 273 368" stroke="black" stroke-width="9" stroke-linecap="round"/>
<path d="M316 259L348.979 336.444" stroke="black" stroke-width="9" stroke-linecap="round"/>
<path d="M267 298L272.329 366.465" stroke="black" stroke-width="9" stroke-linecap="round"/>
<path d="M293 127L303 259" stroke="black" stroke-width="9" stroke-linecap="round"/>
<path d="M334 122L316 259" stroke="black" stroke-width="9" stroke-linecap="round"/>
<path d="M153 229.999C188.486 239.724 211.132 250.298 267 297.999" stroke="black" stroke-width="9" stroke-linecap="round"/>
<path d="M205 202L272 288" stroke="black" stroke-width="9" stroke-linecap="round"/>
<path d="M101 98L148 183" stroke="black" stroke-width="9" stroke-linecap="round"/>
<path d="M228 7L278 97" stroke="black" stroke-width="9" stroke-linecap="round"/>
<path d="M228 5L101 97" stroke="black" stroke-width="9" stroke-linecap="round"/>
<path d="M278 97L183 165" stroke="black" stroke-width="9" stroke-linecap="round"/>
<path d="M336 97L181 206" stroke="black" stroke-width="9" stroke-linecap="round"/>
<path d="M313 97H336" stroke="black" stroke-width="9" stroke-linecap="round"/>
<path d="M278 97H281" stroke="black" stroke-width="9" stroke-linecap="round"/>
<path d="M219.413 219.806V220.148" stroke="black" stroke-width="9" stroke-linecap="round"/>
<path d="M220 218.5C226 198.833 249.9 165.7 297.5 190.5" stroke="black" stroke-width="9"/>
<path d="M302.999 254C300.546 261.712 283.5 277 259.327 270.798" stroke="black" stroke-width="9"/>
<path d="M158.001 215.5C158.001 215.5 139.001 210.9 145.001 190.5C151.001 170.1 173.501 165.333 184.001 165.5C194.334 166.667 213.501 172.1 207.501 184.5" stroke="black" stroke-width="9"/>
<path d="M181 192C182 190 185.6 186 192 186C200 186 198 188.5 202.5 188.5C206.1 188.5 207.333 185.167 207.5 183.5" stroke="black" stroke-width="9"/>
<path d="M181 191.5C179.5 195.833 177.4 204.3 181 205.5C184.6 206.7 194.167 198.667 198.5 194.5C201.167 191.667 206.3 189.2 205.5 202" stroke="black" stroke-width="9"/>
<path d="M152.5 229C150.333 220.833 157.9 203.9 205.5 201.5" stroke="black" stroke-width="9"/>
<path d="M334 122C339.167 96.5 344.8 41.5002 318 59.5002C284.5 82.0002 281 94.5001 283.5 104C285.5 111.6 302 114.5 306 106.5C310 98.5 320.5 83 330.5 85.0002" stroke="black" stroke-width="9"/>
<path d="M230.5 228.5C229.667 223.667 231.2 213.2 244 210" stroke="black" stroke-width="9"/>
<path d="M257 199.5C257 194.333 260.6 184.5 275 186.5" stroke="black" stroke-width="9"/>
<path d="M241.5 245C244.333 229.167 258.4 197.1 292 195.5" stroke="black" stroke-width="9"/>
<path d="M241 246.5C255 269 321.9 269.1 291.5 195.5" stroke="black" stroke-width="9"/>
<path d="M249 178L259 191.803" stroke="black" stroke-width="9" stroke-linecap="round"/>
<path d="M259 173L263 188.138" stroke="black" stroke-width="9" stroke-linecap="round"/>
<path d="M270 170V186.283" stroke="black" stroke-width="9" stroke-linecap="round"/>
<path d="M220 219L230 223.026" stroke="black" stroke-width="9" stroke-linecap="round"/>
<path d="M220 207L233 216.362" stroke="black" stroke-width="9" stroke-linecap="round"/>
<path d="M228 201L237 212.467" stroke="black" stroke-width="9" stroke-linecap="round"/>
<path d="M197 247C187 262.167 156 292 112 290C67.9999 288 59.3332 268.167 60.4999 258.5C48.8333 284.333 39.3 336.3 94.5 337.5C163.5 339 184 270 213.5 258.5" stroke="black" stroke-width="9"/>
<path d="M92.0001 379C78.1668 373.333 48.5001 363.7 40.5001 370.5C30.5001 379 -25.4999 490 26.0001 491C77.5001 492 51.5 463.5 51.5 467.5" stroke="black" stroke-width="9"/>
<path d="M523.5 288.5C530.833 291.5 547.1 295.7 553.5 288.5C561.5 279.5 605.5 189 568.5 159C538.9 135 534.833 182 536.5 208.5" stroke="black" stroke-width="9"/>
</svg>
